<mxfile host="app.diagrams.net" modified="2022-09-07T20:11:35.174Z" agent="5.0 (Macintosh; Intel Mac OS X 10_15_7) AppleWebKit/605.1.15 (KHTML, like Gecko) Version/15.5 Safari/605.1.15" etag="ho-3BZR3EGrnAmwnOs-1" version="20.3.0" type="github">
  <diagram id="NUrrV363fUX7J6T2pWXn" name="Page-1">
    <mxGraphModel dx="1113" dy="732" grid="1" gridSize="10" guides="1" tooltips="1" connect="1" arrows="1" fold="1" page="1" pageScale="1" pageWidth="827" pageHeight="1169" math="0" shadow="0">
      <root>
        <mxCell id="0" />
        <mxCell id="1" parent="0" />
        <mxCell id="8sRkr59kc1jZLxN1haVp-2" value="Ekran start aplikacji(na górze czerwony napis tic tac toe na dole button start)&amp;nbsp;" style="rounded=0;whiteSpace=wrap;html=1;" vertex="1" parent="1">
          <mxGeometry x="50" y="170" width="160" height="70" as="geometry" />
        </mxCell>
        <mxCell id="8sRkr59kc1jZLxN1haVp-4" value="Czy naciśnięto przycisk start?" style="rhombus;whiteSpace=wrap;html=1;" vertex="1" parent="1">
          <mxGeometry x="300" y="140" width="110" height="120" as="geometry" />
        </mxCell>
        <mxCell id="8sRkr59kc1jZLxN1haVp-5" value="" style="endArrow=classic;html=1;rounded=0;entryX=0;entryY=0.5;entryDx=0;entryDy=0;" edge="1" parent="1" target="8sRkr59kc1jZLxN1haVp-4">
          <mxGeometry width="50" height="50" relative="1" as="geometry">
            <mxPoint x="210" y="200" as="sourcePoint" />
            <mxPoint x="440" y="300" as="targetPoint" />
            <Array as="points">
              <mxPoint x="250" y="200" />
            </Array>
          </mxGeometry>
        </mxCell>
        <mxCell id="8sRkr59kc1jZLxN1haVp-6" value="" style="endArrow=classic;html=1;rounded=0;exitX=0.5;exitY=1;exitDx=0;exitDy=0;" edge="1" parent="1" source="8sRkr59kc1jZLxN1haVp-4">
          <mxGeometry width="50" height="50" relative="1" as="geometry">
            <mxPoint x="390" y="350" as="sourcePoint" />
            <mxPoint x="355" y="330" as="targetPoint" />
          </mxGeometry>
        </mxCell>
        <mxCell id="8sRkr59kc1jZLxN1haVp-7" value="Nie" style="text;html=1;align=center;verticalAlign=middle;resizable=0;points=[];autosize=1;strokeColor=none;fillColor=none;" vertex="1" parent="1">
          <mxGeometry x="360" y="285" width="40" height="30" as="geometry" />
        </mxCell>
        <mxCell id="8sRkr59kc1jZLxN1haVp-8" value="Nic się nie dzieje" style="rounded=0;whiteSpace=wrap;html=1;" vertex="1" parent="1">
          <mxGeometry x="300" y="330" width="120" height="60" as="geometry" />
        </mxCell>
        <mxCell id="8sRkr59kc1jZLxN1haVp-9" value="" style="endArrow=classic;html=1;rounded=0;exitX=1;exitY=0.5;exitDx=0;exitDy=0;" edge="1" parent="1" source="8sRkr59kc1jZLxN1haVp-4">
          <mxGeometry width="50" height="50" relative="1" as="geometry">
            <mxPoint x="390" y="350" as="sourcePoint" />
            <mxPoint x="490" y="200" as="targetPoint" />
          </mxGeometry>
        </mxCell>
        <mxCell id="8sRkr59kc1jZLxN1haVp-11" value="Tak" style="edgeLabel;html=1;align=center;verticalAlign=middle;resizable=0;points=[];" vertex="1" connectable="0" parent="8sRkr59kc1jZLxN1haVp-9">
          <mxGeometry x="-0.375" y="-1" relative="1" as="geometry">
            <mxPoint x="5" y="-11" as="offset" />
          </mxGeometry>
        </mxCell>
        <mxCell id="8sRkr59kc1jZLxN1haVp-12" value="Ekran choose colour" style="rounded=0;whiteSpace=wrap;html=1;" vertex="1" parent="1">
          <mxGeometry x="490" y="170" width="130" height="70" as="geometry" />
        </mxCell>
        <mxCell id="8sRkr59kc1jZLxN1haVp-13" value="Czy wybrano kolor?" style="rhombus;whiteSpace=wrap;html=1;" vertex="1" parent="1">
          <mxGeometry x="700" y="145" width="130" height="120" as="geometry" />
        </mxCell>
        <mxCell id="8sRkr59kc1jZLxN1haVp-14" value="" style="endArrow=classic;html=1;rounded=0;exitX=1;exitY=0.5;exitDx=0;exitDy=0;" edge="1" parent="1">
          <mxGeometry width="50" height="50" relative="1" as="geometry">
            <mxPoint x="620" y="204.5" as="sourcePoint" />
            <mxPoint x="700" y="204.5" as="targetPoint" />
          </mxGeometry>
        </mxCell>
        <mxCell id="8sRkr59kc1jZLxN1haVp-15" value="Tak" style="edgeLabel;html=1;align=center;verticalAlign=middle;resizable=0;points=[];" vertex="1" connectable="0" parent="8sRkr59kc1jZLxN1haVp-14">
          <mxGeometry x="-0.375" y="-1" relative="1" as="geometry">
            <mxPoint x="5" y="-11" as="offset" />
          </mxGeometry>
        </mxCell>
        <mxCell id="8sRkr59kc1jZLxN1haVp-19" value="Nic się nie dzieje" style="rounded=0;whiteSpace=wrap;html=1;" vertex="1" parent="1">
          <mxGeometry x="705" y="330" width="120" height="60" as="geometry" />
        </mxCell>
        <mxCell id="8sRkr59kc1jZLxN1haVp-22" value="" style="endArrow=classic;html=1;rounded=0;entryX=0.5;entryY=0;entryDx=0;entryDy=0;exitX=0.5;exitY=1;exitDx=0;exitDy=0;" edge="1" parent="1" source="8sRkr59kc1jZLxN1haVp-13" target="8sRkr59kc1jZLxN1haVp-19">
          <mxGeometry width="50" height="50" relative="1" as="geometry">
            <mxPoint x="695" y="310" as="sourcePoint" />
            <mxPoint x="745" y="260" as="targetPoint" />
          </mxGeometry>
        </mxCell>
        <mxCell id="8sRkr59kc1jZLxN1haVp-23" value="Nie" style="text;html=1;align=center;verticalAlign=middle;resizable=0;points=[];autosize=1;strokeColor=none;fillColor=none;" vertex="1" parent="1">
          <mxGeometry x="760" y="280" width="40" height="30" as="geometry" />
        </mxCell>
        <mxCell id="8sRkr59kc1jZLxN1haVp-24" value="Start rozgrywki" style="rounded=0;whiteSpace=wrap;html=1;" vertex="1" parent="1">
          <mxGeometry x="910" y="175" width="120" height="60" as="geometry" />
        </mxCell>
        <mxCell id="8sRkr59kc1jZLxN1haVp-25" value="" style="endArrow=classic;html=1;rounded=0;exitX=1;exitY=0.5;exitDx=0;exitDy=0;" edge="1" parent="1">
          <mxGeometry width="50" height="50" relative="1" as="geometry">
            <mxPoint x="830" y="204.5" as="sourcePoint" />
            <mxPoint x="910" y="204.5" as="targetPoint" />
          </mxGeometry>
        </mxCell>
        <mxCell id="8sRkr59kc1jZLxN1haVp-26" value="Tak" style="edgeLabel;html=1;align=center;verticalAlign=middle;resizable=0;points=[];" vertex="1" connectable="0" parent="8sRkr59kc1jZLxN1haVp-25">
          <mxGeometry x="-0.375" y="-1" relative="1" as="geometry">
            <mxPoint x="5" y="-11" as="offset" />
          </mxGeometry>
        </mxCell>
        <mxCell id="8sRkr59kc1jZLxN1haVp-27" value="&amp;nbsp; &amp;nbsp;Czy został wyłoniony zwycięzca lub nie ma już wolngo pola gry?" style="rhombus;whiteSpace=wrap;html=1;" vertex="1" parent="1">
          <mxGeometry x="1130" y="140" width="140" height="130" as="geometry" />
        </mxCell>
        <mxCell id="8sRkr59kc1jZLxN1haVp-28" value="" style="endArrow=classic;html=1;rounded=0;entryX=0;entryY=0.5;entryDx=0;entryDy=0;exitX=1;exitY=0.5;exitDx=0;exitDy=0;" edge="1" parent="1" source="8sRkr59kc1jZLxN1haVp-24" target="8sRkr59kc1jZLxN1haVp-27">
          <mxGeometry width="50" height="50" relative="1" as="geometry">
            <mxPoint x="1030" y="210" as="sourcePoint" />
            <mxPoint x="1080" y="160" as="targetPoint" />
          </mxGeometry>
        </mxCell>
        <mxCell id="8sRkr59kc1jZLxN1haVp-30" value="Rozgrywka nadal trwa ruch wykonuje inny gracz niż ten, który wykonał ruch wcześniej" style="rounded=0;whiteSpace=wrap;html=1;" vertex="1" parent="1">
          <mxGeometry x="1120" y="340" width="160" height="75" as="geometry" />
        </mxCell>
        <mxCell id="8sRkr59kc1jZLxN1haVp-31" value="" style="endArrow=classic;html=1;rounded=0;entryX=0.5;entryY=0;entryDx=0;entryDy=0;exitX=0.5;exitY=1;exitDx=0;exitDy=0;" edge="1" parent="1" target="8sRkr59kc1jZLxN1haVp-30">
          <mxGeometry width="50" height="50" relative="1" as="geometry">
            <mxPoint x="1200" y="270" as="sourcePoint" />
            <mxPoint x="1180" y="265" as="targetPoint" />
          </mxGeometry>
        </mxCell>
        <mxCell id="8sRkr59kc1jZLxN1haVp-32" value="Nie" style="text;html=1;align=center;verticalAlign=middle;resizable=0;points=[];autosize=1;strokeColor=none;fillColor=none;" vertex="1" parent="1">
          <mxGeometry x="1195" y="285" width="40" height="30" as="geometry" />
        </mxCell>
        <mxCell id="8sRkr59kc1jZLxN1haVp-33" value="" style="endArrow=classic;html=1;rounded=0;exitX=0.5;exitY=0;exitDx=0;exitDy=0;" edge="1" parent="1" source="8sRkr59kc1jZLxN1haVp-27">
          <mxGeometry width="50" height="50" relative="1" as="geometry">
            <mxPoint x="990" y="260" as="sourcePoint" />
            <mxPoint x="1200" y="60" as="targetPoint" />
          </mxGeometry>
        </mxCell>
        <mxCell id="8sRkr59kc1jZLxN1haVp-34" value="Następuje koniec gry z informacją o rezultacie" style="rounded=0;whiteSpace=wrap;html=1;" vertex="1" parent="1">
          <mxGeometry x="1140" width="120" height="60" as="geometry" />
        </mxCell>
      </root>
    </mxGraphModel>
  </diagram>
</mxfile>
